<svg xmlns="http://www.w3.org/2000/svg" viewBox="0 0 175.99 27.03"><defs><style>.cls-1{fill:#1240AB;fill-rule:evenodd;}</style></defs><title>logo-text</title><g id="Слой_2" data-name="Слой 2"><g id="Слой_1-2" data-name="Слой 1"><path class="cls-1" d="M150.06,21.6V18.82c2.14,0,2.27-2.46,2.27-4.59s-.13-4.53-2.27-4.53V6.92c3,0,6,2.07,6,7.31s-3,7.37-6,7.37ZM176,11.32v9.44c0,.26,0,.39-.39.39h-2.71c-.33,0-.39-.07-.39-.39v-8.6c0-1.42-.13-2.33-1.29-2.33A3.67,3.67,0,0,0,168.88,11v9.77c0,.26-.07.39-.39.39h-2.78c-.32,0-.39-.07-.39-.39v-8.6c0-1.17,0-2.33-1.29-2.33A3.44,3.44,0,0,0,161.7,11v9.77c0,.26,0,.39-.39.39H158.6c-.32,0-.39-.07-.39-.39V12.35A12.26,12.26,0,0,0,157.89,9a7.36,7.36,0,0,1-.26-1A.38.38,0,0,1,158,7.7L160.09,7c.51-.2.71-.13.9.51a6.47,6.47,0,0,1,.39,1.3l.19-.13a6.4,6.4,0,0,1,4-1.75,3,3,0,0,1,2.91,1.88l.13-.13a6.59,6.59,0,0,1,4.14-1.75C175.93,6.92,176,9.9,176,11.32Zm-25.93-4.4V9.7c-2.06,0-2.19,2.46-2.19,4.53s.06,4.59,2.19,4.59V21.6c-3,0-5.94-2.14-5.94-7.37s3-7.31,5.94-7.31ZM124.66,16V13.52h1.81l-1.1-4.79a22.09,22.09,0,0,1-.65-3.68c0,.19-.06.38-.06.58V2.07h1.87c.32,0,.39.2.45.45l5.43,17.91a.57.57,0,0,1,.07.33.37.37,0,0,1-.39.39H129c-.33,0-.46-.07-.58-.59L127.18,16Zm9.5-5.76-1-1.42a.4.4,0,0,1-.06-.26c0-.39.51-.64.71-.77a7.9,7.9,0,0,1,3.94-.91A5.13,5.13,0,0,1,141.34,8a3.71,3.71,0,0,1,1.22,2.72,3.16,3.16,0,0,1-1.93,3.1,3.18,3.18,0,0,1,2.26,3.23c0,2.85-2.33,4.53-5.5,4.53a8.65,8.65,0,0,1-3.68-.84c-.46-.2-1-.39-1-.84,0-.13.06-.2.06-.33l.65-1.42a.26.26,0,0,1,.26-.19,2.44,2.44,0,0,1,.84.32,5.18,5.18,0,0,0,2.58.71,1.93,1.93,0,0,0,2.2-2c0-1.68-1.74-1.68-2.58-1.68h-.65c-.32,0-.39-.07-.39-.39V13.13c0-.33.07-.39.39-.39h.65c1,0,2.32-.13,2.32-1.68a1.54,1.54,0,0,0-1.74-1.55,5.08,5.08,0,0,0-2.2.58c-.45.26-.58.39-.71.39S134.16,10.35,134.16,10.28Zm-9.5-8.21V5.63a29.8,29.8,0,0,1-.65,3.1l-1.23,4.79h1.88V16h-2.27l-1.16,4.52c-.07.39-.13.59-.45.59h-3c-.64,0-.52-.39-.45-.59l5.56-18.1c.06-.19.06-.39.45-.39ZM110.75,20.89V18.43a3.48,3.48,0,0,0,1.62-.45,1.44,1.44,0,0,0,.52-1.17,1.4,1.4,0,0,0-.52-1.1,2.82,2.82,0,0,0-1.49-.45h-.13V12.87a3,3,0,0,0,1.23-.39,1.24,1.24,0,0,0,.46-1.1,1.15,1.15,0,0,0-.46-1,3.49,3.49,0,0,0-1.23-.32V7.63a10.57,10.57,0,0,1,2.4.2,5.94,5.94,0,0,1,1.42.45,3.07,3.07,0,0,1,.9,1.16,2.61,2.61,0,0,1,.39,1.42,3.07,3.07,0,0,1-.58,1.88,3,3,0,0,1-1.55,1.1,3.28,3.28,0,0,1,1.81,1.1,3.13,3.13,0,0,1,.77,2.2,3.58,3.58,0,0,1-.38,1.68,2.81,2.81,0,0,1-1.1,1.16,4.49,4.49,0,0,1-1.68.71A11,11,0,0,1,110.75,20.89Zm0-13.26v2.46h-1.61v2.78h1.61v2.39h-1.61v3.17h1.61v2.46H106.1c-.19,0-.32,0-.32-.07s-.07-.13-.07-.32V8c0-.13,0-.26.07-.26s.13-.07.32-.07h4.65ZM97.44,21.34V18.43a3.37,3.37,0,0,0,.84.13,4.45,4.45,0,0,0,1.29-.2,6.59,6.59,0,0,0,1.42-.45,1.64,1.64,0,0,1,.52-.19.22.22,0,0,1,.19-.07c.07,0,.13,0,.13.07s.13.06.2.13l.64,1.61c0,.07.07.13.07.2h0a.5.5,0,0,1-.13.32c-.07.13-.2.2-.33.32a5.21,5.21,0,0,1-1.94.78,9.66,9.66,0,0,1-2.32.26Zm0-6.14V12.68h2.13A2.32,2.32,0,0,0,99.5,12a2.11,2.11,0,0,0-.06-.64,2.21,2.21,0,0,0-.65-1.23,1.71,1.71,0,0,0-1.16-.45h-.19V7.18h.38a4.62,4.62,0,0,1,3.3,1.1,5.83,5.83,0,0,1,1.75,3.23,8.18,8.18,0,0,1,.26,1.29c0,.46.06,1,.06,1.49a1.65,1.65,0,0,1-.13.71c-.06.13-.26.2-.52.2Zm0-8V9.64a2.28,2.28,0,0,0-1.43.71,5,5,0,0,0-.71,2.33h2.14V15.2H95.3a3.46,3.46,0,0,0,.78,2.52,2,2,0,0,0,1.36.71v2.91a5.63,5.63,0,0,1-4-1.75,7.37,7.37,0,0,1-1.55-5,8.71,8.71,0,0,1,1.61-5.36,4.92,4.92,0,0,1,4-2.07ZM59.09,20.89V18.17a2,2,0,0,0,1.23-.32,1.47,1.47,0,0,0,.59-1.3,1.61,1.61,0,0,0-.46-1.16,2.52,2.52,0,0,0-1.36-.45V12.22a15.4,15.4,0,0,1,2.27.26,4.33,4.33,0,0,1,1.61.84,3.49,3.49,0,0,1,1,1.29,4.24,4.24,0,0,1,.33,1.88,4.76,4.76,0,0,1-.39,2,3.38,3.38,0,0,1-1,1.36,4.35,4.35,0,0,1-1.68.78,9.42,9.42,0,0,1-2.07.26Zm7-.39V8.15c0-.13,0-.26.07-.32a1.77,1.77,0,0,0,.45-.13l2.46-.52c.19,0,.32,0,.32.06s.13.13.13.26v13c0,.19,0,.32-.07.32s-.19.07-.32.07H66.53c-.19,0-.26,0-.32-.07s-.07-.13-.07-.32Zm16.68-2.26h3.11V8.15a.45.45,0,0,1,.13-.32,3.4,3.4,0,0,0,.38-.13l2.46-.52c.19,0,.32,0,.39.06s.06.13.06.26v13a.83.83,0,0,1-.06.32.46.46,0,0,1-.32.07H73.32c-.19,0-.26,0-.32-.07s-.07-.13-.07-.32V8.15c0-.13,0-.26.13-.32a3.41,3.41,0,0,1,.71-.2l2.14-.45c.19,0,.25,0,.32.06s.06.13.13.26V18.24h3.1V8.15a.28.28,0,0,1,.07-.32,3.4,3.4,0,0,0,.38-.13l2.53-.52a.53.53,0,0,1,.32.06c.06,0,.06.13.06.26Zm-23.73-6v2.72H57.22v3.3h1.36a1.29,1.29,0,0,0,.51-.07v2.72H54.18c-.13,0-.26,0-.32-.07V8.15c0-.13,0-.26.06-.32a6.26,6.26,0,0,1,.84-.2l2.07-.45c.13-.07.26,0,.33,0s.06.19.06.32v4.72h1.87ZM45.71,21.6V18.82c2.2,0,2.26-2.52,2.26-4.27s-.06-4.2-2.26-4.2V7.57h.58c3.3,0,5.43,2.58,5.43,7,0,4.78-2.91,7.05-6,7.05Zm0-16.3V1.94L49.66.13c.19-.06.71-.32.9.13l.91,2.07c.06.13.19.45-.33.71ZM33.81,1.55l1.62.26c.07,0,.26.13.26.46a3.76,3.76,0,0,1-.52,1.61,3.91,3.91,0,0,1-3.42,1.75,4.05,4.05,0,0,1-3.5-1.75,3.65,3.65,0,0,1-.45-1.61c0-.33.13-.46.2-.46l1.61-.26c.2,0,.39-.06.45.07s.13.26.2.58a1.41,1.41,0,0,0,1.49,1.16c.77,0,1.16-.38,1.42-1.16.13-.45.13-.65.45-.65Zm11.9.39V5.3l-.39.2a5,5,0,0,0-3.16,4.07l-.07.33a4.62,4.62,0,0,1,3.62-2.33v2.78h0c-2.13,0-2.26,2.45-2.26,4.2s.13,4.27,2.26,4.27h0V21.6h0a5.62,5.62,0,0,1-5.24-3.3,13.34,13.34,0,0,1-.9-5.69,16.12,16.12,0,0,1,.65-5.5,8.22,8.22,0,0,1,4.2-4.59l1.29-.58ZM12.87,26.12V25l.64-1.42c.13-.19.2-.19.33-.19a2.07,2.07,0,0,1,.38.13,4.08,4.08,0,0,0,1.94.58c1.49,0,1.88-1.1,2.2-2.07l.26-.9H17.46c-.2,0-.33,0-.46-.39L12.87,8.67V7.44a.54.54,0,0,1,.32-.07l2.33-.19c.51-.07.64-.19.84.52l1.81,6.72c.26,1,.84,3.75,1,4.79.65-3.63.91-4.34,1-4.79L21.66,7.7a.65.65,0,0,1,.78-.59l2.13.33c.26,0,.58,0,.58.32a1.08,1.08,0,0,1-.13.45l-2.71,10a42.23,42.23,0,0,1-1.94,6.33,4.12,4.12,0,0,1-4,2.46,7.21,7.21,0,0,1-3-.71,3.3,3.3,0,0,1-.45-.2Zm0-6.27.26-.77c.06-.2.12-.46-.26-.59v1.36Zm24.76,1-2.13.71c-.52.13-.65,0-.72-.13a3.31,3.31,0,0,1-.58-1.48,6.17,6.17,0,0,1-4.26,1.68c-2.33,0-3.63-1.62-3.63-3.88V8c0-.26,0-.39.52-.52l2.59-.52c.19-.06.45-.06.45.32v9.12c0,.84-.06,2.33,1.81,2.33a3.86,3.86,0,0,0,2.2-.91V8c0-.39-.07-.33,1-.59L37,6.92c.2-.06.39-.06.39.32v8.93a12.86,12.86,0,0,0,.45,3.88,3.83,3.83,0,0,1,.13.45C38,20.69,37.76,20.76,37.63,20.82ZM12.87,7.44V8.67l-.13-.46a2.34,2.34,0,0,1-.13-.51.28.28,0,0,1,.26-.26Zm0,11h0l-.71-.13c-.85-.19-1-.58-1.23-1.87l-.46-2.33a3.74,3.74,0,0,0-2.52-3,3.1,3.1,0,0,0,2.2-2.71l.32-2c.2-1.35.59-1.55,1.23-1.74l.71-.2c.26-.06.33-.25.26-.58l-.58-1.94c-.06-.32-.32-.32-.52-.32a5.45,5.45,0,0,0-2.39.65,3.83,3.83,0,0,0-1.68,3L7.11,7.63c-.32,1.68-1,2.07-2.39,2.07h-1v-7c0-.58-.26-.58-.52-.58H.52c-.26,0-.52,0-.52.58V20.56c0,.52.26.59.52.59H3.23c.26,0,.52-.07.52-.59V12.74H5a1.93,1.93,0,0,1,2.13,1.81l.65,3.36a4.39,4.39,0,0,0,1.16,2.78,5,5,0,0,0,2.91.91c.45,0,.52-.2.58-.45l.46-1.3V18.49Zm0,6.53v1.1c-.33-.26-.33-.38-.2-.58Z"/></g></g></svg>