<svg xmlns="http://www.w3.org/2000/svg" viewBox="0 0 78.5 65"><defs><style>.cls-1{fill:#ccdfee;}.cls-2{fill:#999;}.cls-3,.cls-4{fill:none;stroke:#999;}.cls-3{stroke-miterlimit:10;}.cls-4{stroke-linecap:round;stroke-linejoin:round;}</style></defs><title>ico-title01</title><g id="Слой_2" data-name="Слой 2"><g id="Layer_1" data-name="Layer 1"><circle class="cls-1" cx="48.5" cy="30" r="30"/><path class="cls-2" d="M6,30.69V61.48a2.52,2.52,0,1,1-5,0V30.86a.17.17,0,0,1,.17-.17H6m1-1H1.17A1.17,1.17,0,0,0,0,30.86V61.48a3.52,3.52,0,1,0,7,0V29.69Z"/><path class="cls-2" d="M35.48,26A2.52,2.52,0,0,1,38,28.52v33A2.52,2.52,0,0,1,35.48,64H6.26A4.47,4.47,0,0,0,7,61.48v-33A2.52,2.52,0,0,1,9.55,26H35.48m0-1H9.55A3.51,3.51,0,0,0,6,28.52v33A3.51,3.51,0,0,1,2.52,65h33A3.51,3.51,0,0,0,39,61.48v-33A3.51,3.51,0,0,0,35.48,25Z"/><path class="cls-3" d="M33.14,29.69H11.89a1.15,1.15,0,0,0-1.17,1.17v9.53a1.15,1.15,0,0,0,1.17,1.17H33.14a1.15,1.15,0,0,0,1.17-1.17V30.86A1.15,1.15,0,0,0,33.14,29.69Z"/><path class="cls-2" d="M19.21,54.5c.11,0,.24.14.24.33v5.34c0,.19-.13.33-.24.33H11.68c-.11,0-.23-.14-.23-.33V54.83c0-.19.12-.33.23-.33h7.53m0-1H11.68a1.29,1.29,0,0,0-1.23,1.33v5.34a1.29,1.29,0,0,0,1.23,1.33h7.53a1.29,1.29,0,0,0,1.24-1.33V54.83a1.29,1.29,0,0,0-1.24-1.33Z"/><line class="cls-4" x1="24.5" y1="45.5" x2="34.5" y2="45.5"/><line class="cls-4" x1="24.5" y1="49.5" x2="34.5" y2="49.5"/><line class="cls-4" x1="10.5" y1="45.5" x2="20.5" y2="45.5"/><line class="cls-4" x1="10.5" y1="49.5" x2="20.5" y2="49.5"/><line class="cls-4" x1="24.5" y1="53.5" x2="34.5" y2="53.5"/></g></g></svg>